HIERARCHY
ROOT hip
{
  OFFSET 0 0 0
  CHANNELS 6 Xposition Yposition Zposition Zrotation Yrotation Xrotation
  JOINT abdomen
  {
    OFFSET 0 20.6881 -0.73152
    CHANNELS 3 Zrotation Xrotation Yrotation
    JOINT chest
    {
      OFFSET 0 11.7043 -0.48768
      CHANNELS 3 Zrotation Xrotation Yrotation
      JOINT neck
      {
        OFFSET 0 22.1894 -2.19456
        CHANNELS 3 Zrotation Xrotation Yrotation
        JOINT head
        {
          OFFSET -0.24384 7.07133 1.2192
          CHANNELS 3 Zrotation Xrotation Yrotation
          JOINT leftEye
          {
            OFFSET 4.14528 8.04674 8.04672
            CHANNELS 3 Zrotation Xrotation Yrotation
            End Site
            {
              OFFSET 1 0 0
            }
          }
          JOINT rightEye
          {
            OFFSET -3.6576 8.04674 8.04672
            CHANNELS 3 Zrotation Xrotation Yrotation
            End Site
            {
              OFFSET 1 0 0
            }
          }
        }
      }
      JOINT rCollar
      {
        OFFSET -2.68224 19.2634 -4.8768
        CHANNELS 3 Zrotation Xrotation Yrotation
        JOINT rShldr
        {
          OFFSET -8.77824 -1.95073 1.46304
          CHANNELS 3 Zrotation Xrotation Yrotation
          JOINT rForeArm
          {
            OFFSET -28.1742 -1.7115 0.48768
            CHANNELS 3 Zrotation Xrotation Yrotation
            JOINT rHand
            {
              OFFSET -22.5879 0.773209 7.07136
              CHANNELS 3 Zrotation Xrotation Yrotation
              JOINT rThumb1
              {
                OFFSET -1.2192 -0.487915 3.41376
                CHANNELS 3 Zrotation Xrotation Yrotation
                JOINT rThumb2
                {
                  OFFSET -3.37035 -0.52449 3.41376
                  CHANNELS 3 Zrotation Xrotation Yrotation
                  End Site
                  {
                    OFFSET -1.78271 -1.18214 1.43049
                  }
                }
              }
              JOINT rIndex1
              {
                OFFSET -7.75947 0.938293 5.60832
                CHANNELS 3 Zrotation Xrotation Yrotation
                JOINT rIndex2
                {
                  OFFSET -2.54057 -0.884171 1.56538
                  CHANNELS 3 Zrotation Xrotation Yrotation
                  End Site
                  {
                    OFFSET -1.62519 -0.234802 1.16502
                  }
                }
              }
              JOINT rMid1
              {
                OFFSET -8.24714 1.18213 3.41376
                CHANNELS 3 Zrotation Xrotation Yrotation
                JOINT rMid2
                {
                  OFFSET -3.10165 -0.590103 1.0647
                  CHANNELS 3 Zrotation Xrotation Yrotation
                  End Site
                  {
                    OFFSET -2.48547 -0.328903 0.83742
                  }
                }
              }
              JOINT rRing1
              {
                OFFSET -8.82822 0.546677 1.51678
                CHANNELS 3 Zrotation Xrotation Yrotation
                JOINT rRing2
                {
                  OFFSET -2.60934 -0.819778 -0.0198488
                  CHANNELS 3 Zrotation Xrotation Yrotation
                  End Site
                  {
                    OFFSET -2.33842 -0.294052 0.168128
                  }
                }
              }
              JOINT rPinky1
              {
                OFFSET -8.27202 -0.0477905 -0.4584
                CHANNELS 3 Zrotation Xrotation Yrotation
                JOINT rPinky2
                {
                  OFFSET -1.82734 -0.647385 -0.700984
                  CHANNELS 3 Zrotation Xrotation Yrotation
                  End Site
                  {
                    OFFSET -1.69225 -0.51767 -0.607171
                  }
                }
              }
            }
          }
        }
      }
      JOINT lCollar
      {
        OFFSET 2.68224 19.2634 -4.8768
        CHANNELS 3 Zrotation Xrotation Yrotation
        JOINT lShldr
        {
          OFFSET 8.77824 -1.95073 1.46304
          CHANNELS 3 Zrotation Xrotation Yrotation
          JOINT lForeArm
          {
            OFFSET 28.1742 -1.7115 0.48768
            CHANNELS 3 Zrotation Xrotation Yrotation
            JOINT lHand
            {
              OFFSET 22.5879 0.773209 7.07136
              CHANNELS 3 Zrotation Xrotation Yrotation
              JOINT lThumb1
              {
                OFFSET 1.2192 -0.487915 3.41376
                CHANNELS 3 Zrotation Xrotation Yrotation
                JOINT lThumb2
                {
                  OFFSET 3.37035 -0.52449 3.41376
                  CHANNELS 3 Zrotation Xrotation Yrotation
                  End Site
                  {
                    OFFSET 1.78271 -1.18214 1.43049
                  }
                }
              }
              JOINT lIndex1
              {
                OFFSET 7.75947 0.938293 5.60832
                CHANNELS 3 Zrotation Xrotation Yrotation
                JOINT lIndex2
                {
                  OFFSET 2.54057 -0.884171 1.56538
                  CHANNELS 3 Zrotation Xrotation Yrotation
                  End Site
                  {
                    OFFSET 1.62519 -0.234802 1.16502
                  }
                }
              }
              JOINT lMid1
              {
                OFFSET 8.24714 1.18213 3.41376
                CHANNELS 3 Zrotation Xrotation Yrotation
                JOINT lMid2
                {
                  OFFSET 3.10165 -0.590103 1.0647
                  CHANNELS 3 Zrotation Xrotation Yrotation
                  End Site
                  {
                    OFFSET 2.48547 -0.328903 0.83742
                  }
                }
              }
              JOINT lRing1
              {
                OFFSET 8.82822 0.546677 1.51678
                CHANNELS 3 Zrotation Xrotation Yrotation
                JOINT lRing2
                {
                  OFFSET 2.60934 -0.819778 -0.0198488
                  CHANNELS 3 Zrotation Xrotation Yrotation
                  End Site
                  {
                    OFFSET 2.33842 -0.294052 0.168128
                  }
                }
              }
              JOINT lPinky1
              {
                OFFSET 8.27202 -0.0477905 -0.4584
                CHANNELS 3 Zrotation Xrotation Yrotation
                JOINT lPinky2
                {
                  OFFSET 1.82734 -0.647385 -0.700984
                  CHANNELS 3 Zrotation Xrotation Yrotation
                  End Site
                  {
                    OFFSET 1.69225 -0.51767 -0.607171
                  }
                }
              }
            }
          }
        }
      }
    }
  }
  JOINT rButtock
  {
    OFFSET -8.77824 4.35084 1.2192
    CHANNELS 3 Zrotation Xrotation Yrotation
    JOINT rThigh
    {
      OFFSET 0 -1.70687 -2.19456
      CHANNELS 3 Zrotation Xrotation Yrotation
      JOINT rShin
      {
        OFFSET 0 -36.8199 0.73152
        CHANNELS 3 Zrotation Xrotation Yrotation
        JOINT rFoot
        {
          OFFSET 0.73152 -45.1104 -5.12064
          CHANNELS 3 Zrotation Xrotation Yrotation
          End Site
          {
            OFFSET -1.1221 -3.69964 12.103
          }
        }
      }
    }
  }
  JOINT lButtock
  {
    OFFSET 8.77824 4.35084 1.2192
    CHANNELS 3 Zrotation Xrotation Yrotation
    JOINT lThigh
    {
      OFFSET 0 -1.70687 -2.19456
      CHANNELS 3 Zrotation Xrotation Yrotation
      JOINT lShin
      {
        OFFSET 0 -36.8199 0.73152
        CHANNELS 3 Zrotation Xrotation Yrotation
        JOINT lFoot
        {
          OFFSET -0.73152 -45.1104 -5.12064
          CHANNELS 3 Zrotation Xrotation Yrotation
          End Site
          {
            OFFSET 1.1221 -3.69964 12.103
          }
        }
      }
    }
  }
}
MOTION
Frames:	7
Frame Time:	0.00833333
29.9145 36.02 90.1186 -2.1883 9.6105 23.7532 -5.52647 72.1245 1.14984 -0.590128 -0.659158 -0.525426 -1.67582 20.479 -2.25709 2.58339 -55.6399 -3.80804 -0.0 0.0 0.0 -0.0 0.0 0.0 -7.50524e-14 -9.49857e-14 -1.74142e-13 32.139 -19.2891 88.6741 -16.794 -9.5702 31.0972 -0.00717945 -6.97967 -0.978476 1.95638e-09 1.41363e-09 -6.08072e-10 3.39265e-09 2.43906e-09 -1.04912e-09 1.95638e-09 1.41364e-09 -6.08082e-10 7.73091 5.47488 0.417314 1.95638e-09 1.41363e-09 -6.08076e-10 2.90554 0.965183 0.102902 1.95639e-09 1.41363e-09 -6.08073e-10 10.2786 0.731801 0.0259123 1.95637e-09 1.41363e-09 -6.08068e-10 2.22167 -0.733487 -0.20892 -7.52339e-14 -9.49547e-14 -1.74378e-13 -25.9802 -15.7997 -90.2439 19.9073 -12.937 -38.3129 -0.0065461 -2.90257 0.407439 8.36688e-10 2.43638e-09 4.4433e-10 1.44497e-09 4.20187e-09 7.64681e-10 8.36681e-10 2.43638e-09 4.44341e-10 -7.73091 5.47488 -0.417314 8.36683e-10 2.43636e-09 4.44319e-10 -2.90554 0.965183 -0.102902 8.36676e-10 2.43637e-09 4.44321e-10 -10.2786 0.731801 -0.0259123 8.36693e-10 2.43638e-09 4.44326e-10 -2.22167 -0.733487 0.20892 -2.03217e-16 0.0 -3.88251e-19 -127.769 -38.0675 -123.913 -1.76935 55.3149 -11.7907 -178.94 23.923 -174.921 2.03217e-16 0.0 3.88251e-19 131.364 -31.168 131.732 -20.9141 83.1993 -95.7916 -175.614 -1.1392 43.8719
29.985 36.9039 90.0829 -2.1528 9.4164 24.003 -5.77604 71.0487 1.11426 -0.568366 -0.82982 -0.568339 -2.1398 19.9349 -2.05326 2.31583 -56.3335 -3.51919 -0.0 0.0 0.0 -0.0 0.0 0.0 -9.56423e-14 -1.66053e-13 -1.38398e-13 28.8427 -20.6176 88.5587 -15.2391 -8.09542 27.8645 -0.114087 -10.9478 -1.5523 1.7969e-09 1.7501e-09 -9.03558e-10 3.12106e-09 3.01334e-09 -1.55653e-09 1.7969e-09 1.75012e-09 -9.0357e-10 7.73091 5.47488 0.417314 1.7969e-09 1.75011e-09 -9.03561e-10 2.90554 0.965183 0.102902 1.79691e-09 1.7501e-09 -9.03557e-10 10.2786 0.731801 0.0259123 1.79689e-09 1.7501e-09 -9.03552e-10 2.22167 -0.733487 -0.20892 -9.57938e-14 -1.66018e-13 -1.38614e-13 -24.3415 -16.5931 -90.158 18.5732 -11.3442 -35.1994 0.0228634 -5.25239 0.739576 3.07303e-10 4.63427e-10 1.32315e-10 5.30493e-10 7.9157e-10 2.24913e-10 3.07295e-10 4.63419e-10 1.32329e-10 -7.73091 5.47488 -0.417314 3.07295e-10 4.63408e-10 1.32307e-10 -2.90554 0.965183 -0.102902 3.07291e-10 4.63409e-10 1.32309e-10 -10.2786 0.731801 -0.0259123 3.07309e-10 4.63421e-10 1.32312e-10 -2.22167 -0.733487 0.20892 -2.03217e-16 0.0 -3.88251e-19 -127.113 -38.9729 -123.0 -1.90787 56.6391 -12.2704 -179.323 22.6058 -173.841 2.03217e-16 0.0 3.88251e-19 130.753 -31.5356 131.176 -32.0518 67.7045 -36.8432 177.882 -0.283767 92.9976
30.0619 37.8001 90.0302 -2.0986 9.1766 24.2627 -6.03167 69.8822 1.08137 -0.544783 -0.9788 -0.609203 -2.48267 19.4911 -1.81186 1.9616 -57.3525 -3.19023 -0.0 0.0 0.0 -0.0 0.0 0.0 -1.04896e-13 -2.2226e-13 -9.67087e-14 24.0426 -21.7582 87.5302 -13.9438 -6.90917 25.441 -0.226918 -13.4434 -1.92516 1.37878e-09 1.84691e-09 -1.05336e-09 2.4003e-09 3.17887e-09 -1.81506e-09 1.37877e-09 1.84693e-09 -1.05337e-09 7.73091 5.47488 0.417314 1.37877e-09 1.84692e-09 -1.05336e-09 2.90554 0.965183 0.102902 1.37878e-09 1.84692e-09 -1.05336e-09 10.2786 0.731801 0.0259123 1.37877e-09 1.84691e-09 -1.05335e-09 2.22167 -0.733487 -0.20892 -1.05028e-13 -2.22223e-13 -9.69075e-14 -22.2637 -17.3619 -89.8595 17.1735 -9.82475 -32.1911 0.0620179 -7.08808 1.00133 8.5312e-11 -8.65774e-10 -2.12725e-10 1.4789e-10 -1.50369e-09 -3.70615e-10 8.53029e-11 -8.65784e-10 -2.12709e-10 -7.73091 5.47488 -0.417314 8.53011e-11 -8.65794e-10 -2.12731e-10 -2.90554 0.965183 -0.102902 8.53002e-11 -8.65793e-10 -2.12729e-10 -10.2786 0.731801 -0.0259123 8.53172e-11 -8.65781e-10 -2.12728e-10 -2.22167 -0.733487 0.20892 -2.03217e-16 0.0 -3.88251e-19 -126.423 -39.8579 -122.137 -2.05521 57.9951 -12.7073 -179.671 21.399 -172.78 2.03217e-16 0.0 3.88251e-19 130.052 -31.8998 130.559 -5.97857 55.3618 -30.2255 174.723 -6.39369 127.431
30.1403 38.706 89.9575 -2.0382 8.8964 24.5566 -6.3845 68.5939 1.13168 -0.504867 -1.08786 -0.642385 -2.68475 19.191 -1.53317 1.46522 -58.8358 -2.84649 -0.0 0.0 0.0 -0.0 0.0 0.0 -9.64749e-14 -2.66744e-13 -3.94048e-14 16.5971 -22.4876 84.9394 -13.1012 -6.18028 23.9292 -0.371317 -14.9202 -2.14406 4.30779e-10 1.55708e-09 -9.89163e-10 7.60613e-10 2.6854e-09 -1.70867e-09 4.30777e-10 1.55709e-09 -9.89174e-10 7.73091 5.47488 0.417314 4.30776e-10 1.55708e-09 -9.89166e-10 2.90554 0.965183 0.102902 4.30786e-10 1.55708e-09 -9.89161e-10 10.2786 0.731801 0.0259123 4.30773e-10 1.55708e-09 -9.89157e-10 2.22167 -0.733487 -0.20892 -9.66024e-14 -2.66709e-13 -3.959e-14 -19.8893 -18.1107 -89.4284 15.7102 -8.43533 -29.0941 0.0913264 -8.33383 1.18003 3.85345e-10 -1.27253e-09 -6.69617e-10 6.68799e-10 -2.19993e-09 -1.15693e-09 3.85337e-10 -1.27254e-09 -6.696e-10 -7.73091 5.47488 -0.417314 3.85335e-10 -1.27254e-09 -6.69621e-10 -2.90554 0.965183 -0.102902 3.85335e-10 -1.27254e-09 -6.69619e-10 -10.2786 0.731801 -0.0259123 3.8535e-10 -1.27253e-09 -6.69621e-10 -2.22167 -0.733487 0.20892 -2.03217e-16 0.0 -3.88251e-19 -125.771 -40.7112 -121.383 -2.24501 59.3716 -13.1114 -179.998 20.3124 -171.717 2.03217e-16 0.0 3.88251e-19 129.231 -32.2513 129.872 4.26414 52.2407 -26.3273 174.495 -10.0842 142.178
30.2146 39.6231 89.8715 -1.9934 8.5841 24.8867 -6.78117 67.1886 1.2247 -0.444763 -1.17018 -0.668788 -2.80797 18.9887 -1.21553 0.889404 -60.6879 -2.4464 -0.0 0.0 0.0 -0.0 0.0 0.0 -7.88563e-14 -3.01671e-13 3.44798e-14 7.20829 -22.4977 81.1241 -12.6293 -5.82767 23.0007 -0.522174 -15.7379 -2.25917 -9.44232e-10 9.95732e-10 -7.83067e-10 -1.61912e-09 1.72852e-09 -1.36021e-09 -9.44231e-10 9.95732e-10 -7.83076e-10 7.73091 5.47488 0.417314 -9.44234e-10 9.95734e-10 -7.83071e-10 2.90554 0.965183 0.102902 -9.44225e-10 9.95734e-10 -7.83067e-10 10.2786 0.731801 0.0259123 -9.44235e-10 9.95736e-10 -7.83062e-10 2.22167 -0.733487 -0.20892 -7.89872e-14 -3.01641e-13 3.4309e-14 -17.2237 -18.8591 -88.8447 14.1851 -7.15833 -25.878 0.111387 -9.25968 1.31329 1.00368e-09 -1.30316e-09 -1.25636e-09 1.74072e-09 -2.24283e-09 -2.1659e-09 1.00367e-09 -1.30316e-09 -1.25634e-09 -7.73091 5.47488 -0.417314 1.00367e-09 -1.30317e-09 -1.25636e-09 -2.90554 0.965183 -0.102902 1.00367e-09 -1.30317e-09 -1.25636e-09 -10.2786 0.731801 -0.0259123 1.00368e-09 -1.30316e-09 -1.25636e-09 -2.22167 -0.733487 0.20892 -2.03217e-16 0.0 -3.88251e-19 -125.148 -41.5508 -120.694 -2.46402 60.7746 -13.5146 179.687 19.2669 -170.614 2.03217e-16 0.0 3.88251e-19 128.314 -32.582 129.14 5.03276 53.7313 -21.6515 174.013 -11.5564 147.417
30.2832 40.5512 89.7832 -1.996 8.2791 25.2426 -7.05782 65.7329 1.21117 -0.399783 -1.25691 -0.700398 -2.8526 18.8208 -0.858385 0.391149 -62.6669 -1.89861 -0.0 0.0 0.0 -0.0 0.0 0.0 -5.99433e-14 -3.1836e-13 1.02468e-13 -2.0585 -21.6755 77.0907 -12.4678 -5.74912 22.5929 -0.48315 -14.6116 -2.08379 -2.21314e-09 4.0723e-10 -5.34699e-10 -3.81608e-09 7.24588e-10 -9.38656e-10 -2.21314e-09 4.07221e-10 -5.34706e-10 7.73091 5.47488 0.417314 -2.21314e-09 4.0723e-10 -5.34702e-10 2.90554 0.965183 0.102902 -2.21313e-09 4.07232e-10 -5.34699e-10 10.2786 0.731801 0.0259123 -2.21314e-09 4.07236e-10 -5.34695e-10 2.22167 -0.733487 -0.20892 -6.00805e-14 -3.18336e-13 1.0231e-13 -13.9091 -19.5209 -87.8382 12.7256 -6.02824 -22.9307 0.12214 -9.83439 1.39616 1.61018e-09 -1.17499e-09 -1.78209e-09 2.79183e-09 -2.01208e-09 -3.06981e-09 1.61017e-09 -1.17499e-09 -1.78207e-09 -7.73091 5.47488 -0.417314 1.61017e-09 -1.17499e-09 -1.78209e-09 -2.90554 0.965183 -0.102902 1.61017e-09 -1.17499e-09 -1.78209e-09 -10.2786 0.731801 -0.0259123 1.61018e-09 -1.17498e-09 -1.7821e-09 -2.22167 -0.733487 0.20892 -2.03217e-16 0.0 -3.88251e-19 -124.417 -42.404 -119.978 -2.66282 62.2287 -13.862 179.399 18.3017 -169.532 2.03217e-16 0.0 3.88251e-19 127.346 -32.9097 128.365 0.892383 57.0308 -16.4518 173.049 -11.9962 148.028
30.3458 41.4926 89.6985 -2.0622 8.017 25.6129 -7.08589 64.2927 0.973887 -0.405385 -1.3792 -0.749206 -2.81746 18.6234 -0.461675 0.140268 -64.5291 -1.09796 -0.0 0.0 0.0 -0.0 0.0 0.0 -4.76396e-14 -3.08126e-13 1.42081e-13 -9.20955 -20.4677 73.8347 -12.534 -5.83021 22.6483 -0.130697 -10.2531 -1.45672 -2.84283e-09 3.59386e-11 -3.43684e-10 -4.90742e-09 8.99206e-11 -6.12953e-10 -2.84282e-09 3.59256e-11 -3.43691e-10 7.73091 5.47488 0.417314 -2.84283e-09 3.59385e-11 -3.43688e-10 2.90554 0.965183 0.102902 -2.84282e-09 3.59414e-11 -3.43686e-10 10.2786 0.731801 0.0259123 -2.84283e-09 3.59454e-11 -3.43681e-10 2.22167 -0.733487 -0.20892 -4.77803e-14 -3.08108e-13 1.41932e-13 -9.58467 -19.9396 -86.1208 11.4958 -5.10125 -20.6382 0.124914 -10.0267 1.42387 1.87472e-09 -1.10535e-09 -2.05595e-09 3.25034e-09 -1.88734e-09 -3.54094e-09 1.87472e-09 -1.10534e-09 -2.05594e-09 -7.73091 5.47488 -0.417314 1.87472e-09 -1.10534e-09 -2.05595e-09 -2.90554 0.965183 -0.102902 1.87472e-09 -1.10534e-09 -2.05595e-09 -10.2786 0.731801 -0.0259123 1.87473e-09 -1.10534e-09 -2.05596e-09 -2.22167 -0.733487 0.20892 -2.03217e-16 0.0 -3.88251e-19 -123.43 -43.2926 -119.136 -2.80361 63.7598 -14.0887 179.148 17.4563 -168.529 2.03217e-16 0.0 3.88251e-19 126.375 -33.252 127.547 -1.99065 59.3947 -12.2964 172.333 -12.6856 148.999
